HIERARCHY
ROOT Hips
{
	OFFSET 0.000000 121.760803 0.000000
	CHANNELS 6 Xposition Yposition Zposition Xrotation Yrotation Zrotation 
	JOINT Spine
	{
		OFFSET 0.072000 7.257294 -0.789700
		CHANNELS 3 Xrotation Yrotation Zrotation
		JOINT Spine1
		{
			OFFSET 0.000000 12.508769 -0.658067
			CHANNELS 3 Xrotation Yrotation Zrotation
			JOINT Spine1_split
			{
				OFFSET 0.000000 12.508769 -0.658067
				CHANNELS 3 Xrotation Yrotation Zrotation
				JOINT Spine2
				{
					OFFSET 0.000000 12.508769 -0.658067
					CHANNELS 3 Xrotation Yrotation Zrotation
					JOINT Neck
					{
						OFFSET 0.000000 14.033295 7.520400
						CHANNELS 3 Xrotation Yrotation Zrotation
						JOINT Head
						{
							OFFSET 0.000000 8.198502 5.703100
							CHANNELS 3 Xrotation Yrotation Zrotation
							JOINT HeadTop_End
							{
								OFFSET 0.000000 17.760803 13.332701
								CHANNELS 3 Xrotation Yrotation Zrotation
								End Site
								{
									OFFSET 0.000000 0.000000 0.000000
								}
							}
						}
					}
					JOINT LeftShoulder
					{
						OFFSET 6.292450 5.785301 -0.669000
						CHANNELS 3 Xrotation Yrotation Zrotation
						JOINT LeftShoulder_split
						{
							OFFSET 6.292450 5.785301 -0.669000
							CHANNELS 3 Xrotation Yrotation Zrotation
							JOINT LeftArm
							{
								OFFSET 13.907140 -6.093903 1.965100
								CHANNELS 3 Xrotation Yrotation Zrotation
								JOINT LeftForeArm
								{
									OFFSET 34.140198 0.000000 0.000000
									CHANNELS 3 Xrotation Yrotation Zrotation
									JOINT LeftHand
									{
										OFFSET 40.960209 0.000000 0.000000
										CHANNELS 3 Xrotation Yrotation Zrotation
										JOINT LeftHandThumb1
										{
											OFFSET 10.006996 -7.170425 9.573125
											CHANNELS 3 Xrotation Yrotation Zrotation
											JOINT LeftHandThumb2
											{
												OFFSET 1.835007 -1.059448 1.059443
												CHANNELS 3 Xrotation Yrotation Zrotation
												JOINT LeftHandThumb3
												{
													OFFSET 2.112267 -1.219513 1.219518
													CHANNELS 3 Xrotation Yrotation Zrotation
													JOINT LeftHandThumb4
													{
														OFFSET 4.843811 -2.796570 2.796576
														CHANNELS 3 Xrotation Yrotation Zrotation
														End Site
														{
															OFFSET 0.000000 0.000000 0.000000
														}
													}
												}
											}
										}
										JOINT LeftHandIndex1
										{
											OFFSET 18.389847 -0.922348 4.596882
											CHANNELS 3 Xrotation Yrotation Zrotation
											JOINT LeftHandIndex2
											{
												OFFSET 4.711273 0.000000 0.000000
												CHANNELS 3 Xrotation Yrotation Zrotation
												JOINT LeftHandIndex3
												{
													OFFSET 2.886131 0.000000 0.000000
													CHANNELS 3 Xrotation Yrotation Zrotation
													JOINT LeftHandIndex4
													{
														OFFSET 6.145912 0.000000 0.000000
														CHANNELS 3 Xrotation Yrotation Zrotation
														End Site
														{
															OFFSET 0.000000 0.000000 0.000000
														}
													}
												}
											}
										}
										JOINT LeftHandMiddle1
										{
											OFFSET 18.013008 0.000000 0.000000
											CHANNELS 3 Xrotation Yrotation Zrotation
											JOINT LeftHandMiddle2
											{
												OFFSET 4.946693 0.000000 0.000000
												CHANNELS 3 Xrotation Yrotation Zrotation
												JOINT LeftHandMiddle3
												{
													OFFSET 3.342232 0.000000 0.000000
													CHANNELS 3 Xrotation Yrotation Zrotation
													JOINT LeftHandMiddle4
													{
														OFFSET 4.461754 0.000000 0.000000
														CHANNELS 3 Xrotation Yrotation Zrotation
														End Site
														{
															OFFSET 0.000000 0.000000 0.000000
														}
													}
												}
											}
										}
										JOINT LeftHandRing1
										{
											OFFSET 15.849892 -0.102921 -4.126150
											CHANNELS 3 Xrotation Yrotation Zrotation
											JOINT LeftHandRing2
											{
												OFFSET 3.527054 0.000000 0.000000
												CHANNELS 3 Xrotation Yrotation Zrotation
												JOINT LeftHandRing3
												{
													OFFSET 2.961098 0.000000 0.000000
													CHANNELS 3 Xrotation Yrotation Zrotation
													JOINT LeftHandRing4
													{
														OFFSET 4.927200 0.000000 0.000000
														CHANNELS 3 Xrotation Yrotation Zrotation
														End Site
														{
															OFFSET 0.000000 0.000000 0.000000
														}
													}
												}
											}
										}
										JOINT LeftHandPinky1
										{
											OFFSET 12.791824 -0.832031 -6.799156
											CHANNELS 3 Xrotation Yrotation Zrotation
											JOINT LeftHandPinky2
											{
												OFFSET 3.327133 0.000000 0.000000
												CHANNELS 3 Xrotation Yrotation Zrotation
												JOINT LeftHandPinky3
												{
													OFFSET 3.014900 0.000000 0.000000
													CHANNELS 3 Xrotation Yrotation Zrotation
													JOINT LeftHandPinky4
													{
														OFFSET 5.847786 0.000000 0.000000
														CHANNELS 3 Xrotation Yrotation Zrotation
														End Site
														{
															OFFSET 0.000000 0.000000 0.000000
														}
													}
												}
											}
										}
									}
								}
							}
						}
					}
					JOINT RightShoulder
					{
						OFFSET -6.292450 5.785301 -0.669000
						CHANNELS 3 Xrotation Yrotation Zrotation
						JOINT RightShoulder_split
						{
							OFFSET -6.292450 5.785301 -0.669000
							CHANNELS 3 Xrotation Yrotation Zrotation
							JOINT RightArm
							{
								OFFSET -13.907140 -6.093903 1.965100
								CHANNELS 3 Xrotation Yrotation Zrotation
								JOINT RightForeArm
								{
									OFFSET -34.140198 0.000000 0.000000
									CHANNELS 3 Xrotation Yrotation Zrotation
									JOINT RightHand
									{
										OFFSET -40.960209 0.000000 0.000000
										CHANNELS 3 Xrotation Yrotation Zrotation
										JOINT RightHandThumb1
										{
											OFFSET -10.007050 -7.170456 9.573117
											CHANNELS 3 Xrotation Yrotation Zrotation
											JOINT RightHandThumb2
											{
												OFFSET -1.835007 -1.059448 1.059443
												CHANNELS 3 Xrotation Yrotation Zrotation
												JOINT RightHandThumb3
												{
													OFFSET -2.112267 -1.219513 1.219518
													CHANNELS 3 Xrotation Yrotation Zrotation
													JOINT RightHandThumb4
													{
														OFFSET -4.843834 -2.796585 2.796590
														CHANNELS 3 Xrotation Yrotation Zrotation
														End Site
														{
															OFFSET 0.000000 0.000000 0.000000
														}
													}
												}
											}
										}
										JOINT RightHandIndex1
										{
											OFFSET -18.389870 -0.922424 4.596786
											CHANNELS 3 Xrotation Yrotation Zrotation
											JOINT RightHandIndex2
											{
												OFFSET -4.711273 0.000000 0.000000
												CHANNELS 3 Xrotation Yrotation Zrotation
												JOINT RightHandIndex3
												{
													OFFSET -2.886131 0.000000 0.000000
													CHANNELS 3 Xrotation Yrotation Zrotation
													JOINT RightHandIndex4
													{
														OFFSET -6.145920 0.000000 0.000000
														CHANNELS 3 Xrotation Yrotation Zrotation
														End Site
														{
															OFFSET 0.000000 0.000000 0.000000
														}
													}
												}
											}
										}
										JOINT RightHandMiddle1
										{
											OFFSET -18.013008 0.000000 0.000000
											CHANNELS 3 Xrotation Yrotation Zrotation
											JOINT RightHandMiddle2
											{
												OFFSET -4.946693 0.000000 0.000000
												CHANNELS 3 Xrotation Yrotation Zrotation
												JOINT RightHandMiddle3
												{
													OFFSET -3.342232 0.000000 0.000000
													CHANNELS 3 Xrotation Yrotation Zrotation
													JOINT RightHandMiddle4
													{
														OFFSET -4.461754 0.000000 0.000000
														CHANNELS 3 Xrotation Yrotation Zrotation
														End Site
														{
															OFFSET 0.000000 0.000000 0.000000
														}
													}
												}
											}
										}
										JOINT RightHandRing1
										{
											OFFSET -15.849876 -0.102936 -4.126237
											CHANNELS 3 Xrotation Yrotation Zrotation
											JOINT RightHandRing2
											{
												OFFSET -3.527054 0.000000 0.000000
												CHANNELS 3 Xrotation Yrotation Zrotation
												JOINT RightHandRing3
												{
													OFFSET -2.961098 0.000000 0.000000
													CHANNELS 3 Xrotation Yrotation Zrotation
													JOINT RightHandRing4
													{
														OFFSET -4.927200 0.000000 0.000000
														CHANNELS 3 Xrotation Yrotation Zrotation
														End Site
														{
															OFFSET 0.000000 0.000000 0.000000
														}
													}
												}
											}
										}
										JOINT RightHandPinky1
										{
											OFFSET -12.791786 -0.832077 -6.799222
											CHANNELS 3 Xrotation Yrotation Zrotation
											JOINT RightHandPinky2
											{
												OFFSET -3.327133 0.000000 0.000000
												CHANNELS 3 Xrotation Yrotation Zrotation
												JOINT RightHandPinky3
												{
													OFFSET -3.014900 0.000000 0.000000
													CHANNELS 3 Xrotation Yrotation Zrotation
													JOINT RightHandPinky4
													{
														OFFSET -5.847786 0.000000 0.000000
														CHANNELS 3 Xrotation Yrotation Zrotation
														End Site
														{
															OFFSET 0.000000 0.000000 0.000000
														}
													}
												}
											}
										}
									}
								}
							}
						}
					}
				}
			}
		}
	}
	JOINT LeftUpLeg
	{
		OFFSET 13.026900 -6.336304 -1.092800
		CHANNELS 3 Xrotation Yrotation Zrotation
		JOINT LeftLeg
		{
			OFFSET 0.524474 -46.096886 9.782700
			CHANNELS 3 Xrotation Yrotation Zrotation
			JOINT LeftFoot
			{
				OFFSET -0.524474 -53.427422 -12.948200
				CHANNELS 3 Xrotation Yrotation Zrotation
				JOINT LeftToeBase
				{
					OFFSET 0.192200 -14.009700 16.364100
					CHANNELS 3 Xrotation Yrotation Zrotation
					JOINT LeftToe_End
					{
						OFFSET -1.784700 -0.561700 9.474800
						CHANNELS 3 Xrotation Yrotation Zrotation
						End Site
						{
							OFFSET 0.000000 0.000000 0.000000
						}
					}
				}
			}
		}
	}
	JOINT RightUpLeg
	{
		OFFSET -12.883000 -6.336304 -1.092800
		CHANNELS 3 Xrotation Yrotation Zrotation
		JOINT RightLeg
		{
			OFFSET -0.524587 -46.096825 9.782800
			CHANNELS 3 Xrotation Yrotation Zrotation
			JOINT RightFoot
			{
				OFFSET 0.524587 -53.427383 -12.948300
				CHANNELS 3 Xrotation Yrotation Zrotation
				JOINT RightToeBase
				{
					OFFSET -0.192200 -14.009700 16.364100
					CHANNELS 3 Xrotation Yrotation Zrotation
					JOINT RightToe_End
					{
						OFFSET 1.784700 -0.561700 9.474800
						CHANNELS 3 Xrotation Yrotation Zrotation
						End Site
						{
							OFFSET 0.000000 0.000000 0.000000
						}
					}
				}
			}
		}
	}
}
MOTION
Frames: 5
Frame Time: 0.016667
-0.538393 107.944237 0.581034 -6.104420 -43.212715 -4.140818 5.826006 4.834427 -1.150435 11.836539 9.038698 -3.084347 0.000000 0.000000 0.000000 11.836535 9.038698 -3.084347 -4.303011 -1.272907 0.206301 -6.271936 20.437792 -0.377161 -0.000000 -0.000000 -0.000000 1.392502 -0.696015 -7.877855 0.000000 0.000000 0.000000 -14.260090 2.394331 -63.277092 9.865058 -47.524921 5.927909 16.172855 0.915166 18.795448 9.143007 4.783914 -5.500128 -0.301066 0.107997 0.795307 0.000005 0.000005 0.000011 0.000001 -0.000000 0.000000 -0.902036 -6.980980 -3.808316 0.026635 0.799126 -16.417997 0.000005 0.000008 0.000013 -0.000002 0.000001 -0.000002 1.947866 9.683077 -14.539670 -0.466578 -1.573698 -21.879818 0.000007 0.000005 0.000000 -0.000003 -0.000001 0.000001 2.605898 14.896827 -31.345186 -0.561682 -2.697444 -32.012093 -0.000006 0.000006 0.000006 0.000001 0.000001 0.000001 4.170627 18.495029 -34.987265 -0.700310 -5.780877 -39.372513 -0.000008 0.000002 0.000005 0.000001 0.000001 0.000002 1.410972 9.461535 9.792734 0.000000 0.000000 0.000000 1.220052 -24.270724 60.532907 -6.660709 41.858432 8.043861 6.225237 12.322320 11.673323 -8.895702 -4.903265 -0.383701 7.904857 -19.192203 -2.856765 0.000008 -0.000010 -0.000007 -0.000000 0.000000 0.000000 -1.085547 -1.215406 4.525426 0.128077 -1.119898 16.942424 0.000000 0.000004 -0.000015 0.000001 -0.000001 0.000000 -0.665781 -2.894577 12.730860 -0.670880 1.818959 30.578282 -0.000002 -0.000003 0.000004 -0.000001 0.000000 0.000001 2.420441 -7.405555 21.762818 -0.974633 3.771127 37.430369 -0.000002 -0.000000 0.000012 -0.000001 0.000001 0.000001 3.480942 -10.055015 24.322536 -1.465926 7.881261 41.092085 0.000002 -0.000002 -0.000004 0.000000 -0.000002 -0.000003 -28.118811 5.790302 13.206259 32.819281 -13.430452 -0.043996 -2.035707 0.430060 -7.881409 -2.319084 -3.217005 0.802955 0.000000 -0.000001 0.000000 -3.988337 -13.274052 -16.987068 31.800066 -8.638536 -0.389781 -19.543452 -4.347202 18.458542 -1.784967 -0.356747 0.333176 -0.000000 0.000000 0.000000 
-0.260316 108.043526 0.255964 -6.199472 -43.349527 -4.160535 5.862638 4.818622 -1.207837 11.898880 9.008194 -3.077234 0.000000 0.000000 0.000000 11.898879 9.008194 -3.077234 -4.429664 -1.267870 0.288870 -6.490514 20.388209 -0.421787 -0.000001 0.000000 0.000000 1.401863 -0.822654 -7.787734 0.000000 0.000000 0.000000 -14.062057 2.347402 -63.133563 10.053603 -47.618146 5.985821 16.200686 0.994745 19.382994 9.158610 4.725362 -5.454716 0.188503 0.417734 0.798304 0.000002 0.000005 0.000012 0.000000 0.000000 -0.000000 -0.958178 -6.941315 -4.413342 0.024149 0.791030 -16.487780 0.000003 0.000007 0.000011 -0.000005 0.000001 -0.000003 2.036508 9.671566 -15.139975 -0.465811 -1.571762 -21.854493 0.000009 0.000006 0.000001 -0.000000 -0.000000 0.000001 2.574091 14.834110 -31.340142 -0.563090 -2.699677 -32.043211 -0.000004 0.000002 0.000002 0.000002 0.000001 0.000001 4.238375 18.498963 -35.334112 -0.697793 -5.785135 -39.451309 -0.000006 0.000004 0.000003 -0.000002 0.000001 -0.000001 1.466860 9.326477 9.780284 0.000000 0.000000 0.000000 0.638239 -23.863783 60.130711 -6.816780 41.825411 8.076349 6.034890 12.620469 11.250463 -8.972875 -4.851964 -0.420222 8.125492 -18.985131 -2.690125 0.000013 -0.000008 -0.000006 0.000001 0.000000 0.000000 -1.120321 -1.139230 4.966050 0.131791 -1.131918 16.816858 0.000000 0.000001 -0.000014 -0.000001 0.000001 0.000001 -0.659743 -2.887927 12.813727 -0.667700 1.813545 30.476850 -0.000002 -0.000001 0.000004 0.000000 0.000000 0.000001 2.379471 -7.285912 22.042045 -0.967372 3.761640 37.319375 -0.000002 0.000002 0.000007 0.000001 0.000001 0.000002 3.532383 -10.190429 24.333000 -1.452846 7.866226 40.832029 0.000003 -0.000001 -0.000003 -0.000000 -0.000002 -0.000001 -28.037860 5.831933 13.269715 32.353544 -13.140472 -0.195187 -1.616909 0.173704 -7.904664 -2.292890 -3.085541 0.700936 -0.000000 -0.000001 -0.000000 -4.392727 -13.498538 -17.071431 31.963858 -8.075602 -0.410892 -19.292537 -4.245646 18.164962 -1.666813 -0.372986 0.324844 -0.000000 -0.000001 0.000000 
0.036647 108.209244 -0.189669 -6.212666 -43.506232 -4.156107 5.911356 4.794999 -1.276767 11.981813 8.966216 -3.057287 0.000000 0.000000 0.000000 11.981820 8.966205 -3.057287 -4.631376 -1.213641 0.393660 -6.738245 20.342055 -0.503911 -0.000001 0.000000 -0.000001 1.424249 -0.917267 -7.638834 0.000000 0.000000 0.000000 -13.828629 2.336951 -63.082917 10.239111 -47.620782 6.058597 16.425394 0.929070 20.144062 9.173017 4.617640 -5.382489 1.007826 0.982145 0.784567 0.000006 0.000005 0.000009 -0.000004 0.000002 0.000003 -1.080095 -6.902737 -5.464030 0.021399 0.782120 -16.564476 0.000001 0.000007 0.000017 -0.000000 -0.000001 -0.000001 2.179174 9.621906 -16.188809 -0.471068 -1.570364 -21.850178 0.000010 0.000005 0.000000 0.000004 0.000001 -0.000001 2.576049 14.731922 -31.569729 -0.560846 -2.704471 -32.093840 -0.000005 0.000007 0.000005 -0.000000 0.000001 0.000002 4.353775 18.523987 -35.859907 -0.692980 -5.791242 -39.531103 -0.000004 0.000001 0.000008 0.000004 -0.000002 -0.000003 1.548607 9.197632 9.728925 0.000000 0.000000 0.000000 -0.123837 -23.268380 59.659940 -6.921682 41.713410 8.099078 5.976518 12.974411 10.588747 -9.096281 -4.769447 -0.477920 8.264817 -18.775746 -2.508996 0.000006 -0.000009 -0.000006 -0.000001 -0.000000 -0.000000 -1.151621 -1.039401 5.376194 0.137447 -1.150277 16.624546 0.000002 0.000001 -0.000014 -0.000002 0.000004 0.000000 -0.653064 -2.883167 12.864815 -0.661495 1.799800 30.309128 -0.000003 -0.000002 0.000006 -0.000001 0.000000 0.000001 2.335061 -7.175477 22.316859 -0.956285 3.749339 37.136640 -0.000001 0.000002 0.000007 0.000000 -0.000000 -0.000003 3.606869 -10.405708 24.310083 -1.436093 7.850945 40.538040 0.000003 0.000000 -0.000003 0.000000 0.000000 0.000001 -27.954057 5.892802 13.421989 31.641907 -12.735840 -0.383189 -1.030047 -0.203274 -7.985784 -2.202419 -2.954494 0.600545 0.000000 -0.000000 -0.000000 -4.928228 -13.809875 -17.040880 32.088369 -7.475007 -0.494788 -18.954839 -4.079404 17.763466 -1.552919 -0.401364 0.295864 -0.000000 0.000002 0.000000 
0.372855 108.581383 -0.921292 -6.100825 -43.696402 -4.135298 5.999703 4.748385 -1.358482 12.136440 8.890870 -2.994821 0.000000 0.000000 0.000000 12.136444 8.890863 -2.994819 -4.947633 -1.039904 0.521744 -7.184486 20.285950 -0.667902 0.000001 -0.000000 0.000000 1.480746 -0.968469 -7.357331 0.000000 0.000000 0.000000 -13.473007 2.397453 -63.225203 10.444994 -47.365156 6.152042 17.081992 0.460959 21.365428 9.194220 4.397452 -5.240281 2.808060 2.235758 0.718576 0.000006 0.000003 0.000010 0.000002 0.000000 -0.000002 -1.409030 -6.869440 -7.861246 0.012211 0.773629 -16.652712 0.000007 0.000006 0.000014 -0.000000 -0.000001 0.000001 2.493105 9.474528 -18.639088 -0.485894 -1.571249 -21.897084 0.000010 0.000004 0.000002 -0.000003 -0.000000 0.000002 2.669342 14.511114 -32.472475 -0.555810 -2.714348 -32.197198 -0.000004 0.000005 0.000003 -0.000002 -0.000002 -0.000001 4.607232 18.590204 -36.929405 -0.682541 -5.802176 -39.617440 -0.000007 0.000002 0.000004 -0.000003 0.000002 0.000001 1.699783 9.063893 9.572953 0.000000 0.000000 0.000000 -1.390758 -22.194251 59.019398 -6.909170 41.325359 8.080215 6.289872 13.518286 9.316062 -9.337840 -4.606803 -0.590496 8.194680 -18.557875 -2.290290 0.000008 -0.000008 -0.000010 0.000001 0.000000 0.000000 -1.167075 -0.886024 5.671157 0.148039 -1.184227 16.268838 0.000001 0.000004 -0.000013 -0.000001 -0.000000 0.000000 -0.639252 -2.885174 12.772655 -0.654319 1.769148 29.971420 -0.000005 -0.000005 0.000007 0.000000 -0.000000 0.000002 2.289826 -7.091435 22.555971 -0.934106 3.724402 36.768705 0.000001 -0.000001 0.000007 -0.000000 -0.000000 0.000001 3.751372 -10.858927 24.169905 -1.411332 7.835654 40.176351 0.000003 0.000002 -0.000003 -0.000000 -0.000001 -0.000003 -27.762933 6.018329 13.801866 30.261266 -12.065888 -0.663080 -0.025625 -0.915877 -8.188461 -1.928941 -2.828036 0.523082 -0.000000 0.000001 0.000000 -5.614849 -14.410273 -16.720074 31.929816 -6.699120 -0.765200 -18.366384 -3.816293 17.137894 -1.171491 -0.460788 0.219695 0.000000 0.000001 0.000000 
0.764931 109.035995 -1.912485 -5.663716 -43.956765 -3.988582 6.091160 4.683004 -1.472032 12.291219 8.793644 -2.923258 0.000000 0.000000 0.000000 12.291222 8.793647 -2.923260 -5.600549 -0.771450 0.762561 -7.478245 20.278623 -0.915327 0.000000 -0.000000 -0.000000 1.559696 -0.881998 -6.930226 0.000000 0.000000 0.000000 -13.113721 2.571165 -63.632283 10.587735 -46.992125 6.307627 18.251032 -0.217695 22.883092 9.221863 4.098828 -5.047219 4.936142 3.790684 0.608182 0.000000 0.000003 0.000010 0.000000 -0.000000 0.000001 -1.780754 -6.833678 -10.684279 -0.000504 0.762991 -16.766444 -0.000001 0.000007 0.000010 -0.000004 -0.000000 0.000001 2.824422 9.261555 -21.423045 -0.507535 -1.574442 -21.988551 0.000015 0.000004 0.000003 0.000000 0.000001 -0.000001 2.812529 14.253214 -33.670883 -0.548555 -2.727390 -32.332025 -0.000004 0.000005 0.000003 0.000000 -0.000001 -0.000000 4.915107 18.723674 -38.162217 -0.667830 -5.816487 -39.697425 -0.000010 0.000003 0.000003 0.000002 0.000000 0.000001 1.892360 8.982956 9.354384 0.000000 0.000000 0.000000 -2.904478 -20.756048 58.240162 -6.773789 40.936882 8.076141 6.780248 14.067168 7.590567 -9.665194 -4.384788 -0.740924 7.973734 -18.341677 -2.042636 0.000007 -0.000009 -0.000004 0.000000 -0.000000 0.000002 -1.190313 -0.674813 5.982609 0.162942 -1.231650 15.771779 0.000001 0.000003 -0.000015 -0.000000 0.000003 0.000000 -0.641231 -2.859164 12.741628 -0.645296 1.726913 29.508948 -0.000005 -0.000002 0.000009 -0.000001 0.000001 0.000002 2.242603 -7.012315 22.837827 -0.904827 3.692144 36.270439 -0.000001 0.000002 0.000017 -0.000001 0.000001 -0.000005 3.919566 -11.395227 24.033708 -1.378309 7.816899 39.712660 0.000002 0.000001 -0.000003 -0.000000 0.000000 0.000003 -27.744088 6.150567 14.353269 28.478718 -11.130298 -0.941826 1.306645 -1.825174 -8.497980 -1.570854 -2.683665 0.438492 -0.000000 0.000001 -0.000000 -6.690415 -15.128172 -16.173277 31.746743 -5.882815 -1.084649 -17.618984 -3.455564 16.330943 -1.246395 -0.549764 -0.000086 0.000000 0.000002 0.000000 
